<svg xmlns="http://www.w3.org/2000/svg" width="1024" height="1024" viewBox="0 0 1024 1024" role="img" aria-label="DECO">
  <defs>
    <linearGradient id="bg" x1="512" y1="80" x2="512" y2="944" gradientUnits="userSpaceOnUse">
      <stop offset="0%" stop-color="#ff7070"/>
      <stop offset="100%" stop-color="#e54545"/>
    </linearGradient>
    <linearGradient id="peelFace" x1="0" y1="0" x2="1" y2="1">
      <stop offset="0%" stop-color="#ef5858"/>
      <stop offset="100%" stop-color="#c42f2f"/>
    </linearGradient>
    <filter id="peelSh" x="-30%" y="-30%" width="160%" height="160%">
      <feDropShadow dx="-6" dy="10" stdDeviation="12" flood-color="#000000" flood-opacity="0.28"/>
    </filter>
    <clipPath id="iconClip">
      <rect width="1024" height="1024" rx="230"/>
    </clipPath>
  </defs>

  <g clip-path="url(#iconClip)">
    <rect width="1024" height="1024" fill="url(#bg)"/>

    <!-- ?? ?????? -->
    <g filter="url(#peelSh)">
      <path fill="url(#peelFace)" d="M 698 698 L 1024 698 L 1024 1024 L 698 1024 Z"/>
      <path fill="#d43838" d="M 698 698 L 1024 698 L 1024 1024 Z"/>
      <path fill="#ffffff" opacity="0.12" d="M 728 728 L 994 728 L 728 994 Z"/>
    </g>

    <!-- ?? DECO -->
    <g fill="#ffffff" transform="translate(512 512)">
      <!-- D -->
      <path transform="translate(-340 -72)" d="M0 0 H52 C92 0 118 28 118 72 C118 116 92 144 52 144 H0 Z M18 28 V116 H48 C72 116 86 100 86 72 C86 44 72 28 48 28 Z"/>
      <!-- E -->
      <path transform="translate(-200 -72)" d="M0 0 H132 V28 H28 V58 H118 V86 H28 V116 H132 V144 H0 Z"/>
      <!-- C -->
      <path transform="translate(-40 -72)" d="M0 28 H48 C78 28 98 48 98 72 C98 96 78 116 48 116 H0 V88 H46 C62 88 72 82 72 72 C72 62 62 56 46 56 H0 Z M0 0 H48 C88 0 118 30 118 72 C118 114 88 144 48 144 H0 V116 H46 C70 116 86 102 86 72 C86 42 70 28 46 28 Z"/>
      <!-- O + ?? + ? -->
      <g transform="translate(120 -72)">
        <path d="M0 36 C0 16 18 0 48 0 C78 0 96 16 96 36 C96 56 78 72 48 72 C18 72 0 56 0 36 Z M24 36 C24 46 34 52 48 52 C62 52 72 46 72 36 C72 26 62 20 48 20 C34 20 24 26 24 36 Z"/>
        <circle cx="48" cy="36" r="10" fill="#e54545"/>
        <circle cx="48" cy="36" r="6" fill="#ffffff"/>
        <path d="M28 -22 L38 2 L48 -10 L58 2 L68 -22 L78 -6 L88 -22 L84 8 L12 8 L8 -22 L18 -6 Z"/>
      </g>
    </g>
  </g>
</svg>
